<svg xmlns="http://www.w3.org/2000/svg" width="32.183" height="23.507" viewBox="0 0 32.183 23.507">
  <g id="Icon_feather-youtube" data-name="Icon feather-youtube" transform="translate(1.5 1.5)">
    <path id="Path_21" data-name="Path 21" d="M30.071,9.21A3.687,3.687,0,0,0,27.5,6.557C25.216,6,16.09,6,16.09,6S6.965,6,4.683,6.61A3.687,3.687,0,0,0,2.11,9.263,38.466,38.466,0,0,0,1.5,16.28a38.466,38.466,0,0,0,.61,7.07A3.687,3.687,0,0,0,4.683,25.9c2.281.61,11.407.61,11.407.61s9.126,0,11.407-.61a3.687,3.687,0,0,0,2.573-2.653,38.466,38.466,0,0,0,.61-6.964,38.466,38.466,0,0,0-.61-7.07Z" transform="translate(-1.499 -6)" fill="none" stroke="#db552b" stroke-linecap="round" stroke-linejoin="round" stroke-width="3"/>
    <path id="Path_22" data-name="Path 22" d="M14.625,21.395l7.627-4.337L14.625,12.72Z" transform="translate(-3.018 -6.778)" fill="none" stroke="#db552b" stroke-linecap="round" stroke-linejoin="round" stroke-width="3"/>
  </g>
</svg>
